<svg width="120" height="121" viewBox="0 0 120 121" fill="none" xmlns="http://www.w3.org/2000/svg">
<circle opacity="0.1" cx="60" cy="60.5" r="55" stroke="#C4008D" stroke-width="10"/>
<path d="M10.2729 83.9994C6.18967 75.3587 4.42834 65.8032 5.16255 56.2746C5.89676 46.746 9.10116 37.5731 14.46 29.66C19.8188 21.7469 27.147 15.3667 35.7224 11.1482C44.2978 6.92971 53.8245 5.0185 63.3635 5.60294" stroke="#C4008D" stroke-width="10" stroke-linecap="round" stroke-linejoin="round"/>
<path d="M40.087 72.9C37.927 72.9 36.287 72.3 35.167 71.1C34.0737 69.9 33.527 68.18 33.527 65.94V63.66H37.687V66.14C37.687 67.98 38.447 68.9 39.967 68.9C40.7137 68.9 41.2737 68.6733 41.647 68.22C42.047 67.74 42.247 66.9133 42.247 65.74V63.46C42.247 62.18 42.0204 61.2733 41.567 60.74C41.1137 60.18 40.3804 59.9 39.367 59.9H37.887V55.9H39.487C40.367 55.9 41.0204 55.6733 41.447 55.22C41.9004 54.7667 42.127 54.0067 42.127 52.94V50.9C42.127 49.94 41.927 49.2333 41.527 48.78C41.127 48.3267 40.5937 48.1 39.927 48.1C38.5137 48.1 37.807 48.9667 37.807 50.7V52.54H33.647V51.06C33.647 48.82 34.1937 47.1 35.287 45.9C36.407 44.7 38.007 44.1 40.087 44.1C42.1937 44.1 43.7937 44.7 44.887 45.9C45.9804 47.0733 46.527 48.78 46.527 51.02V52.02C46.527 53.54 46.2737 54.7667 45.767 55.7C45.2604 56.6067 44.4737 57.26 43.407 57.66V57.74C44.5537 58.1667 45.3804 58.86 45.887 59.82C46.3937 60.78 46.647 62.0067 46.647 63.5V65.98C46.647 68.22 46.087 69.94 44.967 71.14C43.8737 72.3133 42.247 72.9 40.087 72.9ZM56.1027 72.9C53.9427 72.9 52.3027 72.3 51.1827 71.1C50.0893 69.9 49.5427 68.18 49.5427 65.94V63.66H53.7027V66.14C53.7027 67.98 54.4627 68.9 55.9827 68.9C56.7293 68.9 57.2893 68.6733 57.6627 68.22C58.0627 67.74 58.2627 66.9133 58.2627 65.74V63.46C58.2627 62.18 58.036 61.2733 57.5827 60.74C57.1293 60.18 56.396 59.9 55.3827 59.9H53.9027V55.9H55.5027C56.3827 55.9 57.036 55.6733 57.4627 55.22C57.916 54.7667 58.1427 54.0067 58.1427 52.94V50.9C58.1427 49.94 57.9427 49.2333 57.5427 48.78C57.1427 48.3267 56.6093 48.1 55.9427 48.1C54.5293 48.1 53.8227 48.9667 53.8227 50.7V52.54H49.6627V51.06C49.6627 48.82 50.2093 47.1 51.3027 45.9C52.4227 44.7 54.0227 44.1 56.1027 44.1C58.2093 44.1 59.8093 44.7 60.9027 45.9C61.996 47.0733 62.5427 48.78 62.5427 51.02V52.02C62.5427 53.54 62.2893 54.7667 61.7827 55.7C61.276 56.6067 60.4893 57.26 59.4227 57.66V57.74C60.5693 58.1667 61.396 58.86 61.9027 59.82C62.4093 60.78 62.6627 62.0067 62.6627 63.5V65.98C62.6627 68.22 62.1027 69.94 60.9827 71.14C59.8893 72.3133 58.2627 72.9 56.1027 72.9ZM69.8783 60.06C68.4916 60.06 67.4383 59.6733 66.7183 58.9C65.9983 58.1267 65.6383 57.02 65.6383 55.58V48.58C65.6383 47.14 65.9983 46.0333 66.7183 45.26C67.4383 44.4867 68.4916 44.1 69.8783 44.1C71.2649 44.1 72.3183 44.4867 73.0383 45.26C73.7583 46.0333 74.1183 47.14 74.1183 48.58V55.58C74.1183 57.02 73.7583 58.1267 73.0383 58.9C72.3183 59.6733 71.2649 60.06 69.8783 60.06ZM80.0383 44.5H82.8383L71.9983 72.5H69.1983L80.0383 44.5ZM69.8783 57.54C70.8383 57.54 71.3183 56.9533 71.3183 55.78V48.38C71.3183 47.2067 70.8383 46.62 69.8783 46.62C68.9183 46.62 68.4383 47.2067 68.4383 48.38V55.78C68.4383 56.9533 68.9183 57.54 69.8783 57.54ZM82.1583 72.9C80.7716 72.9 79.7183 72.5133 78.9983 71.74C78.2783 70.9667 77.9183 69.86 77.9183 68.42V61.42C77.9183 59.98 78.2783 58.8733 78.9983 58.1C79.7183 57.3267 80.7716 56.94 82.1583 56.94C83.5449 56.94 84.5983 57.3267 85.3183 58.1C86.0383 58.8733 86.3983 59.98 86.3983 61.42V68.42C86.3983 69.86 86.0383 70.9667 85.3183 71.74C84.5983 72.5133 83.5449 72.9 82.1583 72.9ZM82.1583 70.38C83.1183 70.38 83.5983 69.7933 83.5983 68.62V61.22C83.5983 60.0467 83.1183 59.46 82.1583 59.46C81.1983 59.46 80.7183 60.0467 80.7183 61.22V68.62C80.7183 69.7933 81.1983 70.38 82.1583 70.38Z" fill="#C4008D"/>
</svg>
