<svg width="38" height="34" viewBox="0 0 38 34" fill="none" xmlns="http://www.w3.org/2000/svg">
<path fill-rule="evenodd" clip-rule="evenodd" d="M18.671 7.7084C20.8052 -6.68777 37.3774 2.07555 26.7858 11.9272C40.2668 6.62475 40.9962 25.3149 27.155 21.0656C38.5988 30.0977 22.7558 40.0249 19.5063 25.9237C17.3722 40.32 0.861418 31.6536 11.3915 21.7051C-2.12488 27.1659 -2.85417 8.47559 11.0223 12.5666C-0.45687 3.69275 15.4215 -6.39259 18.671 7.7084ZM17.9336 15.1047C18.9019 14.4897 20.265 14.7106 20.8798 15.6785C21.4946 16.6464 21.1766 18.071 20.2083 18.686C19.2402 19.3009 17.9122 18.9217 17.2974 17.9538C16.6827 16.986 16.9655 15.7196 17.9336 15.1047Z" fill="white"/>
</svg>
