<svg width="60" height="60" viewBox="0 0 60 60" fill="none" xmlns="http://www.w3.org/2000/svg">
<path d="M0 8.57143C0 6.29814 0.903059 4.11797 2.51051 2.51051C4.11797 0.903059 6.29814 0 8.57143 0H51.4286C53.7019 0 55.882 0.903059 57.4895 2.51051C59.0969 4.11797 60 6.29814 60 8.57143V51.4286C60 53.7019 59.0969 55.882 57.4895 57.4895C55.882 59.0969 53.7019 60 51.4286 60H8.57143C6.29814 60 4.11797 59.0969 2.51051 57.4895C0.903059 55.882 0 53.7019 0 51.4286V8.57143Z" fill="#F700B1"/>
<path d="M22.3114 15.8657C22.3643 15.0164 22.7524 14.2228 23.3903 13.6596C24.0283 13.0964 24.8639 12.8096 25.7132 12.8625C26.5626 12.9154 27.3561 13.3034 27.9194 13.9414C28.4826 14.5794 28.7693 15.4149 28.7164 16.2643L28.4293 20.8586C28.4246 20.9318 28.435 21.0051 28.4598 21.0741C28.4846 21.1431 28.5233 21.2063 28.5735 21.2597C28.6238 21.3132 28.6844 21.3557 28.7517 21.3848C28.8191 21.4138 28.8917 21.4287 28.965 21.4286H32.175C32.3113 21.4289 32.4426 21.3771 32.5422 21.284C32.6417 21.1908 32.702 21.0632 32.7107 20.9271L33.0257 15.8657C33.0519 15.4452 33.1606 15.0339 33.3458 14.6553C33.5309 14.2768 33.7887 13.9384 34.1046 13.6596C34.4205 13.3807 34.7882 13.1668 35.1868 13.03C35.5853 12.8933 36.0069 12.8363 36.4275 12.8625C36.8481 12.8887 37.2593 12.9974 37.6379 13.1825C38.0164 13.3677 38.3548 13.6255 38.6336 13.9414C38.9125 14.2573 39.1264 14.625 39.2632 15.0236C39.4 15.4221 39.4569 15.8437 39.4307 16.2643L39.1436 20.8586C39.1389 20.9318 39.1493 21.0051 39.1741 21.0741C39.1989 21.1431 39.2376 21.2063 39.2878 21.2597C39.338 21.3132 39.3987 21.3557 39.466 21.3848C39.5334 21.4138 39.606 21.4287 39.6793 21.4286H41.7857C42.6382 21.4286 43.4558 21.7672 44.0586 22.37C44.6614 22.9728 45 23.7904 45 24.6429C45 25.4953 44.6614 26.3129 44.0586 26.9157C43.4558 27.5185 42.6382 27.8571 41.7857 27.8571H39.2079C39.0715 27.8569 38.9402 27.9086 38.8407 28.0017C38.7411 28.0949 38.6809 28.2225 38.6721 28.3586L38.4729 31.5729C38.4682 31.646 38.4785 31.7194 38.5034 31.7884C38.5282 31.8574 38.5669 31.9206 38.6171 31.974C38.6673 32.0275 38.728 32.07 38.7953 32.0991C38.8627 32.1281 38.9352 32.143 39.0086 32.1429H41.7857C42.6382 32.1429 43.4558 32.4815 44.0586 33.0843C44.6614 33.6871 45 34.5047 45 35.3571C45 36.2096 44.6614 37.0272 44.0586 37.63C43.4558 38.2328 42.6382 38.5714 41.7857 38.5714H38.5393C38.403 38.5712 38.2716 38.6229 38.1721 38.716C38.0726 38.8092 38.0123 38.9368 38.0036 39.0729L37.6886 44.1343C37.6624 44.5548 37.5536 44.9661 37.3685 45.3447C37.1834 45.7232 36.9256 46.0616 36.6097 46.3404C36.2938 46.6193 35.9261 46.8332 35.5275 46.97C35.1289 47.1068 34.7073 47.1637 34.2868 47.1375C33.8662 47.1113 33.4549 47.0026 33.0764 46.8175C32.6979 46.6323 32.3595 46.3745 32.0806 46.0586C31.8018 45.7427 31.5878 45.375 31.4511 44.9764C31.3143 44.5779 31.2574 44.1563 31.2836 43.7357L31.5707 39.1414C31.5754 39.0683 31.565 38.9949 31.5402 38.9259C31.5154 38.8569 31.4767 38.7937 31.4265 38.7403C31.3762 38.6868 31.3156 38.6443 31.2482 38.6152C31.1809 38.5862 31.1083 38.5713 31.035 38.5714H27.825C27.6887 38.5712 27.5574 38.6229 27.4578 38.716C27.3583 38.8092 27.298 38.9368 27.2893 39.0729L26.9743 44.1343C26.9214 44.9836 26.5333 45.7772 25.8954 46.3404C25.2574 46.9036 24.4219 47.1904 23.5725 47.1375C22.7231 47.0846 21.9296 46.6966 21.3664 46.0586C20.8031 45.4206 20.5164 44.5851 20.5693 43.7357L20.8564 39.1414C20.8611 39.0683 20.8507 38.9949 20.8259 38.9259C20.8011 38.8569 20.7624 38.7937 20.7122 38.7403C20.662 38.6868 20.6013 38.6443 20.534 38.6152C20.4666 38.5862 20.394 38.5713 20.3207 38.5714H18.2143C17.3618 38.5714 16.5442 38.2328 15.9414 37.63C15.3386 37.0272 15 36.2096 15 35.3571C15 34.5047 15.3386 33.6871 15.9414 33.0843C16.5442 32.4815 17.3618 32.1429 18.2143 32.1429H20.7921C20.9285 32.1431 21.0598 32.0914 21.1593 31.9983C21.2589 31.9051 21.3191 31.7775 21.3279 31.6414L21.5271 28.4271C21.5318 28.354 21.5215 28.2806 21.4966 28.2116C21.4718 28.1426 21.4331 28.0794 21.3829 28.026C21.3327 27.9725 21.272 27.93 21.2047 27.9009C21.1373 27.8719 21.0648 27.857 20.9914 27.8571H18.2143C17.3618 27.8571 16.5442 27.5185 15.9414 26.9157C15.3386 26.3129 15 25.4953 15 24.6429C15 23.7904 15.3386 22.9728 15.9414 22.37C16.5442 21.7672 17.3618 21.4286 18.2143 21.4286H21.4607C21.597 21.4289 21.7284 21.3771 21.8279 21.284C21.9274 21.1908 21.9877 21.0632 21.9964 20.9271L22.3114 15.8657ZM31.5043 32.1429C31.6406 32.1431 31.7719 32.0914 31.8715 31.9983C31.971 31.9051 32.0313 31.7775 32.04 31.6414L32.2414 28.4271C32.2461 28.354 32.2357 28.2806 32.2109 28.2116C32.1861 28.1426 32.1474 28.0794 32.0972 28.026C32.047 27.9725 31.9863 27.93 31.919 27.9009C31.8516 27.8719 31.779 27.857 31.7057 27.8571H28.4936C28.3572 27.8569 28.2259 27.9086 28.1264 28.0017C28.0269 28.0949 27.9666 28.2225 27.9579 28.3586L27.7586 31.5729C27.7539 31.646 27.7643 31.7194 27.7891 31.7884C27.8139 31.8574 27.8526 31.9206 27.9028 31.974C27.953 32.0275 28.0137 32.07 28.081 32.0991C28.1484 32.1281 28.221 32.143 28.2943 32.1429H31.5043Z" fill="white"/>
</svg>
