<svg width="70" height="70" viewBox="0 0 70 70" fill="none" xmlns="http://www.w3.org/2000/svg">
<path d="M0 10C0 7.34784 1.05357 4.8043 2.92893 2.92893C4.8043 1.05357 7.34784 0 10 0H60C62.6522 0 65.1957 1.05357 67.0711 2.92893C68.9464 4.8043 70 7.34784 70 10V60C70 62.6522 68.9464 65.1957 67.0711 67.0711C65.1957 68.9464 62.6522 70 60 70H10C7.34784 70 4.8043 68.9464 2.92893 67.0711C1.05357 65.1957 0 62.6522 0 60V10Z" fill="#F700B1"/>
<path d="M26.03 18.51C26.0917 17.5191 26.5444 16.5933 27.2887 15.9362C28.033 15.2791 29.0078 14.9446 29.9988 15.0063C30.9897 15.0679 31.9155 15.5207 32.5726 16.265C33.2297 17.0093 33.5642 17.9841 33.5025 18.975L33.1675 24.335C33.162 24.4204 33.1741 24.506 33.2031 24.5865C33.232 24.667 33.2772 24.7407 33.3358 24.803C33.3944 24.8654 33.4651 24.915 33.5437 24.9489C33.6223 24.9828 33.7069 25.0002 33.7925 25H37.5375C37.6966 25.0003 37.8498 24.94 37.9659 24.8313C38.082 24.7226 38.1523 24.5737 38.1625 24.415L38.53 18.51C38.5605 18.0194 38.6874 17.5395 38.9034 17.0979C39.1194 16.6563 39.4202 16.2615 39.7887 15.9362C40.1573 15.6108 40.5863 15.3612 41.0512 15.2017C41.5162 15.0421 42.0081 14.9757 42.4988 15.0063C42.9894 15.0368 43.4692 15.1637 43.9109 15.3796C44.3525 15.5956 44.7472 15.8965 45.0726 16.265C45.3979 16.6335 45.6475 17.0625 45.8071 17.5275C45.9666 17.9925 46.033 18.4844 46.0025 18.975L45.6675 24.335C45.662 24.4204 45.6741 24.506 45.7031 24.5865C45.732 24.667 45.7772 24.7407 45.8358 24.803C45.8944 24.8654 45.9652 24.915 46.0437 24.9489C46.1223 24.9828 46.2069 25.0002 46.2925 25H48.75C49.7446 25 50.6984 25.3951 51.4016 26.0984C52.1049 26.8016 52.5 27.7554 52.5 28.75C52.5 29.7446 52.1049 30.6984 51.4016 31.4017C50.6984 32.1049 49.7446 32.5 48.75 32.5H45.7425C45.5834 32.4997 45.4302 32.56 45.3141 32.6687C45.198 32.7774 45.1277 32.9263 45.1175 33.085L44.885 36.835C44.8795 36.9204 44.8916 37.006 44.9206 37.0865C44.9495 37.167 44.9947 37.2407 45.0533 37.303C45.1119 37.3654 45.1827 37.415 45.2612 37.4489C45.3398 37.4828 45.4244 37.5002 45.51 37.5H48.75C49.7446 37.5 50.6984 37.8951 51.4016 38.5984C52.1049 39.3016 52.5 40.2554 52.5 41.25C52.5 42.2446 52.1049 43.1984 51.4016 43.9017C50.6984 44.6049 49.7446 45 48.75 45H44.9625C44.8034 44.9997 44.6502 45.06 44.5341 45.1687C44.418 45.2774 44.3477 45.4263 44.3375 45.585L43.97 51.49C43.9395 51.9807 43.8126 52.4605 43.5966 52.9021C43.3806 53.3437 43.0798 53.7385 42.7113 54.0638C42.3427 54.3892 41.9137 54.6388 41.4488 54.7983C40.9838 54.9579 40.4919 55.0243 40.0012 54.9938C39.5106 54.9632 39.0308 54.8364 38.5891 54.6204C38.1475 54.4044 37.7528 54.1036 37.4274 53.735C37.1021 53.3665 36.8525 52.9375 36.6929 52.4725C36.5334 52.0075 36.467 51.5157 36.4975 51.025L36.8325 45.665C36.838 45.5796 36.8259 45.494 36.7969 45.4135C36.768 45.333 36.7228 45.2593 36.6642 45.197C36.6056 45.1346 36.5348 45.085 36.4563 45.0511C36.3777 45.0172 36.2931 44.9998 36.2075 45H32.4625C32.3034 44.9997 32.1502 45.06 32.0341 45.1687C31.918 45.2774 31.8477 45.4263 31.8375 45.585L31.47 51.49C31.4083 52.4809 30.9556 53.4068 30.2113 54.0638C29.467 54.7209 28.4922 55.0554 27.5012 54.9938C26.5103 54.9321 25.5845 54.4793 24.9274 53.735C24.2703 52.9908 23.9358 52.0159 23.9975 51.025L24.3325 45.665C24.338 45.5796 24.3259 45.494 24.2969 45.4135C24.268 45.333 24.2228 45.2593 24.1642 45.197C24.1056 45.1346 24.0349 45.085 23.9563 45.0511C23.8777 45.0172 23.7931 44.9998 23.7075 45H21.25C20.2554 45 19.3016 44.6049 18.5983 43.9017C17.8951 43.1984 17.5 42.2446 17.5 41.25C17.5 40.2554 17.8951 39.3016 18.5983 38.5984C19.3016 37.8951 20.2554 37.5 21.25 37.5H24.2575C24.4166 37.5003 24.5698 37.44 24.6859 37.3313C24.802 37.2226 24.8723 37.0737 24.8825 36.915L25.115 33.165C25.1205 33.0796 25.1084 32.994 25.0794 32.9135C25.0505 32.833 25.0053 32.7593 24.9467 32.697C24.8881 32.6346 24.8173 32.585 24.7388 32.5511C24.6602 32.5172 24.5756 32.4998 24.49 32.5H21.25C20.2554 32.5 19.3016 32.1049 18.5983 31.4017C17.8951 30.6984 17.5 29.7446 17.5 28.75C17.5 27.7554 17.8951 26.8016 18.5983 26.0984C19.3016 25.3951 20.2554 25 21.25 25H25.0375C25.1966 25.0003 25.3498 24.94 25.4659 24.8313C25.582 24.7226 25.6523 24.5737 25.6625 24.415L26.03 18.51ZM36.755 37.5C36.9141 37.5003 37.0673 37.44 37.1834 37.3313C37.2995 37.2226 37.3698 37.0737 37.38 36.915L37.615 33.165C37.6205 33.0796 37.6084 32.994 37.5794 32.9135C37.5505 32.833 37.5053 32.7593 37.4467 32.697C37.3881 32.6346 37.3173 32.585 37.2388 32.5511C37.1602 32.5172 37.0756 32.4998 36.99 32.5H33.2425C33.0834 32.4997 32.9302 32.56 32.8141 32.6687C32.698 32.7774 32.6277 32.9263 32.6175 33.085L32.385 36.835C32.3795 36.9204 32.3916 37.006 32.4206 37.0865C32.4495 37.167 32.4947 37.2407 32.5533 37.303C32.6119 37.3654 32.6827 37.415 32.7612 37.4489C32.8398 37.4828 32.9244 37.5002 33.01 37.5H36.755Z" fill="#910068"/>
</svg>
