<svg width="120" height="121" viewBox="0 0 120 121" fill="none" xmlns="http://www.w3.org/2000/svg">
<circle opacity="0.1" cx="60" cy="60.5" r="55" stroke="#910068" stroke-width="10"/>
<path d="M60 5.5C69.7033 5.5 79.234 8.0671 87.6246 12.9408C96.0152 17.8144 102.967 24.8211 107.775 33.2497C112.582 41.6784 115.075 51.2289 114.998 60.9319C114.922 70.6349 112.28 80.1451 107.341 88.4972C102.401 96.8493 95.3404 103.746 86.8743 108.487C78.4081 113.229 68.8384 115.646 59.1362 115.493C49.4341 115.341 39.9449 112.624 31.6319 107.62C23.3189 102.615 16.4779 95.4997 11.8032 86.9966" stroke="#910068" stroke-width="10" stroke-linecap="round" stroke-linejoin="round"/>
<path d="M40.327 72.9C38.167 72.9 36.5137 72.2867 35.367 71.06C34.2204 69.8333 33.647 68.1 33.647 65.86V51.38C33.647 46.5267 35.887 44.1 40.367 44.1C42.5004 44.1 44.127 44.7133 45.247 45.94C46.367 47.14 46.927 48.8733 46.927 51.14V51.66H42.767V50.86C42.767 49.02 42.007 48.1 40.487 48.1C39.6604 48.1 39.047 48.3533 38.647 48.86C38.247 49.3667 38.047 50.26 38.047 51.54V56.9H38.127C38.9004 55.2733 40.2337 54.46 42.127 54.46C43.727 54.46 44.9404 55.0067 45.767 56.1C46.5937 57.1933 47.007 58.78 47.007 60.86V65.86C47.007 68.1 46.4337 69.8333 45.287 71.06C44.1404 72.2867 42.487 72.9 40.327 72.9ZM40.327 68.9C41.847 68.9 42.607 67.9933 42.607 66.18V61.22C42.607 59.38 41.847 58.46 40.327 58.46C38.807 58.46 38.047 59.38 38.047 61.22V66.18C38.047 67.9933 38.807 68.9 40.327 68.9ZM58.4627 48.5H49.5827V44.5H62.7827V48.34L55.9027 72.5H51.4227L58.4627 48.5ZM69.8783 60.06C68.4916 60.06 67.4383 59.6733 66.7183 58.9C65.9983 58.1267 65.6383 57.02 65.6383 55.58V48.58C65.6383 47.14 65.9983 46.0333 66.7183 45.26C67.4383 44.4867 68.4916 44.1 69.8783 44.1C71.2649 44.1 72.3183 44.4867 73.0383 45.26C73.7583 46.0333 74.1183 47.14 74.1183 48.58V55.58C74.1183 57.02 73.7583 58.1267 73.0383 58.9C72.3183 59.6733 71.2649 60.06 69.8783 60.06ZM80.0383 44.5H82.8383L71.9983 72.5H69.1983L80.0383 44.5ZM69.8783 57.54C70.8383 57.54 71.3183 56.9533 71.3183 55.78V48.38C71.3183 47.2067 70.8383 46.62 69.8783 46.62C68.9183 46.62 68.4383 47.2067 68.4383 48.38V55.78C68.4383 56.9533 68.9183 57.54 69.8783 57.54ZM82.1583 72.9C80.7716 72.9 79.7183 72.5133 78.9983 71.74C78.2783 70.9667 77.9183 69.86 77.9183 68.42V61.42C77.9183 59.98 78.2783 58.8733 78.9983 58.1C79.7183 57.3267 80.7716 56.94 82.1583 56.94C83.5449 56.94 84.5983 57.3267 85.3183 58.1C86.0383 58.8733 86.3983 59.98 86.3983 61.42V68.42C86.3983 69.86 86.0383 70.9667 85.3183 71.74C84.5983 72.5133 83.5449 72.9 82.1583 72.9ZM82.1583 70.38C83.1183 70.38 83.5983 69.7933 83.5983 68.62V61.22C83.5983 60.0467 83.1183 59.46 82.1583 59.46C81.1983 59.46 80.7183 60.0467 80.7183 61.22V68.62C80.7183 69.7933 81.1983 70.38 82.1583 70.38Z" fill="#910068"/>
</svg>
