<svg width="604" height="597" viewBox="0 0 604 597" fill="none" xmlns="http://www.w3.org/2000/svg">
<path opacity="0.3" d="M38 567.5C215.5 558.833 809.5 469.5 526.5 33.5" stroke="#F700B1" stroke-width="3" stroke-dasharray="12 12"/>
<path d="M17.3489 561.423C17.4158 560.859 18.2333 560.859 18.3002 561.423L18.861 566.149C19.5852 572.252 24.397 577.064 30.5 577.788L35.2265 578.349C35.7899 578.416 35.7899 579.233 35.2265 579.3L30.5 579.861C24.397 580.585 19.5852 585.397 18.861 591.5L18.3002 596.226C18.2333 596.79 17.4158 596.79 17.3489 596.226L16.7881 591.5C16.0639 585.397 11.2521 580.585 5.14898 579.861L0.422551 579.3C-0.14085 579.233 -0.14085 578.416 0.422551 578.349L5.14898 577.788C11.2521 577.064 16.0639 572.252 16.7881 566.149L17.3489 561.423Z" fill="#F700B1"/>
<path d="M513.349 0.422551C513.416 -0.14085 514.233 -0.14085 514.3 0.422551L514.861 5.14898C515.585 11.2521 520.397 16.0639 526.5 16.7881L531.226 17.3489C531.79 17.4158 531.79 18.2333 531.226 18.3002L526.5 18.861C520.397 19.5852 515.585 24.397 514.861 30.5L514.3 35.2265C514.233 35.7899 513.416 35.7899 513.349 35.2265L512.788 30.5C512.064 24.397 507.252 19.5852 501.149 18.861L496.423 18.3002C495.859 18.2333 495.859 17.4158 496.423 17.3489L501.149 16.7881C507.252 16.0639 512.064 11.2521 512.788 5.14898L513.349 0.422551Z" fill="#F700B1"/>
</svg>
