<svg width="36" height="36" viewBox="0 0 36 36" fill="none" xmlns="http://www.w3.org/2000/svg">
<path d="M17.5959 0.65302C17.6628 0.0896184 18.4804 0.0896184 18.5473 0.65302L19.1081 5.37945C19.8322 11.4825 24.6441 16.2944 30.7471 17.0185L35.4735 17.5793C36.037 17.6462 36.037 18.4638 35.4735 18.5307L30.7471 19.0915C24.6441 19.8156 19.8322 24.6275 19.1081 30.7305L18.5473 35.4569C18.4804 36.0204 17.6628 36.0204 17.5959 35.4569L17.0351 30.7305C16.311 24.6275 11.4991 19.8156 5.39605 19.0915L0.669621 18.5307C0.10622 18.4638 0.10622 17.6462 0.669621 17.5793L5.39605 17.0185C11.4991 16.2944 16.311 11.4825 17.0351 5.37945L17.5959 0.65302Z" fill="white"/>
</svg>
