<svg width="50" height="50" viewBox="0 0 50 50" fill="none" xmlns="http://www.w3.org/2000/svg">
<rect x="1" y="1" width="48" height="48" rx="24" stroke="white" stroke-width="2"/>
<path opacity="0.4" d="M30.2 21L16.6 18.6L15 25.8L17 27.8H23V31L24.2 34.6L26.2 35L28.6 29.8L30.2 21Z" fill="white"/>
<path d="M30 26L26 35C25.2044 35 24.4413 34.6839 23.8787 34.1213C23.3161 33.5587 23 32.7956 23 32V28H17.34C17.0501 28.0033 16.763 27.9435 16.4985 27.8248C16.234 27.7061 15.9984 27.5313 15.8082 27.3125C15.6179 27.0937 15.4775 26.8362 15.3967 26.5577C15.3159 26.2793 15.2965 25.9866 15.34 25.7L16.72 16.7C16.7924 16.2231 17.0346 15.7884 17.4021 15.476C17.7697 15.1636 18.2377 14.9945 18.72 15H30M30 26V15M30 26H32.67C33.236 26.01 33.7859 25.8119 34.2154 25.4432C34.645 25.0745 34.9242 24.5609 35 24V17C34.9242 16.4391 34.645 15.9255 34.2154 15.5568C33.7859 15.1881 33.236 14.99 32.67 15H30" stroke="white" stroke-width="2" stroke-linecap="round" stroke-linejoin="round"/>
</svg>
