<svg width="50" height="50" viewBox="0 0 50 50" fill="none" xmlns="http://www.w3.org/2000/svg">
<rect x="1" y="1" width="48" height="48" rx="24" stroke="white" stroke-width="2"/>
<path opacity="0.4" d="M19.8 29L33.4 31.4L35 24.2L33 22.2H27V19L25.8 15.4L23.8 15L21.4 20.2L19.8 29Z" fill="white"/>
<path d="M20 24L24 15C24.7956 15 25.5587 15.3161 26.1213 15.8787C26.6839 16.4413 27 17.2044 27 18V22H32.66C32.9499 21.9967 33.237 22.0565 33.5015 22.1752C33.766 22.2939 34.0016 22.4687 34.1918 22.6875C34.3821 22.9063 34.5225 23.1638 34.6033 23.4423C34.6841 23.7207 34.7035 24.0134 34.66 24.3L33.28 33.3C33.2076 33.7769 32.9654 34.2116 32.5979 34.524C32.2303 34.8364 31.7623 35.0055 31.28 35H20M20 24V35M20 24H17.33C16.764 23.99 16.2141 24.1881 15.7846 24.5568C15.355 24.9255 15.0758 25.4391 15 26V33C15.0758 33.5609 15.355 34.0745 15.7846 34.4432C16.2141 34.8119 16.764 35.01 17.33 35H20" stroke="white" stroke-width="2" stroke-linecap="round" stroke-linejoin="round"/>
</svg>
