<svg width="883" height="327" viewBox="0 0 883 327" fill="none" xmlns="http://www.w3.org/2000/svg">
<path d="M81.6849 90V25.7441H95.0536V53.5165H120.066V25.7441H133.435V90H120.066V65.1601H95.0536V90H81.6849ZM167.281 91.035C162.623 91.035 158.368 89.9713 154.516 87.8438C150.721 85.7163 147.673 82.8125 145.373 79.1326C143.131 75.3951 142.01 71.1689 142.01 66.4539C142.01 61.6814 143.131 57.4552 145.373 53.7752C147.673 50.0952 150.721 47.1915 154.516 45.064C158.368 42.9365 162.623 41.8728 167.281 41.8728C171.938 41.8728 176.165 42.9365 179.959 45.064C183.754 47.1915 186.773 50.0952 189.016 53.7752C191.316 57.4552 192.466 61.6814 192.466 66.4539C192.466 71.1689 191.316 75.3951 189.016 79.1326C186.773 82.8125 183.754 85.7163 179.959 87.8438C176.165 89.9713 171.938 91.035 167.281 91.035ZM167.281 79.3913C169.638 79.3913 171.68 78.8451 173.405 77.7526C175.187 76.6601 176.567 75.1363 177.545 73.1813C178.58 71.2264 179.097 68.9839 179.097 66.4539C179.097 63.9239 178.58 61.7102 177.545 59.8127C176.567 57.8577 175.187 56.3339 173.405 55.2414C171.68 54.0915 169.638 53.5165 167.281 53.5165C164.923 53.5165 162.853 54.0915 161.071 55.2414C159.288 56.3339 157.88 57.8577 156.845 59.8127C155.867 61.7102 155.378 63.9239 155.378 66.4539C155.378 68.9839 155.867 71.2264 156.845 73.1813C157.88 75.1363 159.288 76.6601 161.071 77.7526C162.853 78.8451 164.923 79.3913 167.281 79.3913ZM200.087 107.25V42.9078H212.162V51.8777L211.041 49.2902C212.593 46.9327 214.692 45.1215 217.337 43.8565C220.04 42.534 223.116 41.8728 226.566 41.8728C231.051 41.8728 235.105 42.9653 238.727 45.1503C242.35 47.3352 245.225 50.2965 247.352 54.034C249.48 57.7139 250.543 61.8539 250.543 66.4539C250.543 70.9964 249.48 75.1363 247.352 78.8738C245.282 82.6113 242.436 85.5725 238.813 87.7575C235.191 89.9425 231.08 91.035 226.48 91.035C223.26 91.035 220.27 90.46 217.51 89.31C214.807 88.1025 212.622 86.3488 210.955 84.0488L213.025 81.375V107.25H200.087ZM224.927 79.3913C227.342 79.3913 229.47 78.8451 231.31 77.7526C233.15 76.6601 234.587 75.1363 235.622 73.1813C236.657 71.2264 237.175 68.9839 237.175 66.4539C237.175 63.9239 236.657 61.7102 235.622 59.8127C234.587 57.8577 233.15 56.3339 231.31 55.2414C229.47 54.0915 227.342 53.5165 224.927 53.5165C222.627 53.5165 220.557 54.0627 218.717 55.1552C216.935 56.2477 215.526 57.7714 214.491 59.7264C213.513 61.6814 213.025 63.9239 213.025 66.4539C213.025 68.9839 213.513 71.2264 214.491 73.1813C215.526 75.1363 216.935 76.6601 218.717 77.7526C220.557 78.8451 222.627 79.3913 224.927 79.3913ZM280.804 91.035C275.802 91.035 271.46 89.9425 267.78 87.7575C264.1 85.515 261.254 82.525 259.242 78.7876C257.229 75.0501 256.223 70.9101 256.223 66.3676C256.223 61.6527 257.258 57.4552 259.328 53.7752C261.455 50.0952 264.302 47.1915 267.867 45.064C271.432 42.9365 275.457 41.8728 279.942 41.8728C283.679 41.8728 286.985 42.4765 289.86 43.684C292.735 44.834 295.15 46.4727 297.105 48.6002C299.118 50.7277 300.641 53.2002 301.676 56.0177C302.711 58.7777 303.229 61.7964 303.229 65.0739C303.229 65.9939 303.171 66.9139 303.056 67.8339C302.999 68.6964 302.855 69.4439 302.625 70.0764H267.349V60.5889H295.294L289.17 65.0739C289.745 62.6014 289.716 60.4164 289.084 58.5189C288.451 56.5639 287.33 55.0402 285.72 53.9477C284.168 52.7977 282.242 52.2227 279.942 52.2227C277.699 52.2227 275.773 52.769 274.163 53.8615C272.553 54.954 271.345 56.5639 270.54 58.6914C269.735 60.8189 269.419 63.4064 269.592 66.4539C269.362 69.0989 269.678 71.4276 270.54 73.4401C271.403 75.4526 272.725 77.0338 274.508 78.1838C276.29 79.2763 278.447 79.8226 280.977 79.8226C283.277 79.8226 285.232 79.3626 286.842 78.4426C288.509 77.5226 289.803 76.2576 290.723 74.6476L301.073 79.5638C300.153 81.8638 298.686 83.8763 296.674 85.6013C294.719 87.3263 292.39 88.6775 289.688 89.655C286.985 90.575 284.024 91.035 280.804 91.035ZM326.345 90V42.9078H339.283V90H326.345ZM326.345 38.6815V25.7441H339.283V38.6815H326.345ZM367.207 91.035C362.032 91.035 357.518 89.8275 353.666 87.4125C349.871 84.94 347.284 81.6338 345.904 77.4938L355.391 73.0088C356.599 75.5388 358.237 77.5226 360.307 78.9601C362.377 80.3976 364.677 81.1163 367.207 81.1163C369.047 81.1163 370.456 80.7426 371.433 79.9951C372.411 79.2476 372.9 78.2126 372.9 76.8901C372.9 76.2001 372.727 75.6251 372.382 75.1651C372.037 74.6476 371.52 74.1876 370.83 73.7851C370.14 73.3826 369.277 73.0376 368.242 72.7501L360.221 70.5076C356.369 69.4151 353.407 67.6614 351.337 65.2464C349.267 62.7739 348.232 59.8702 348.232 56.5352C348.232 53.6027 348.98 51.044 350.475 48.859C351.97 46.674 354.069 44.9778 356.771 43.7703C359.473 42.5053 362.578 41.8728 366.086 41.8728C370.686 41.8728 374.711 42.9653 378.161 45.1503C381.668 47.2777 384.141 50.2965 385.578 54.2065L376.005 58.6914C375.315 56.7364 374.05 55.1839 372.21 54.034C370.427 52.8265 368.386 52.2227 366.086 52.2227C364.418 52.2227 363.096 52.5677 362.118 53.2577C361.198 53.9477 360.738 54.8964 360.738 56.1039C360.738 56.7364 360.911 57.3114 361.256 57.8289C361.601 58.3464 362.147 58.8064 362.895 59.2089C363.7 59.6114 364.677 59.9852 365.827 60.3302L373.331 62.5727C377.241 63.7227 380.231 65.4764 382.301 67.8339C384.371 70.1339 385.406 72.9801 385.406 76.3726C385.406 79.3051 384.63 81.8638 383.077 84.0488C381.582 86.2338 379.483 87.9588 376.781 89.2238C374.078 90.4312 370.887 91.035 367.207 91.035ZM431.32 90.5175C425.627 90.5175 421.2 88.9938 418.037 85.9463C414.932 82.8413 413.38 78.5288 413.38 73.0088V54.1202H405.445V42.9078H405.876C408.291 42.9078 410.131 42.304 411.396 41.0965C412.718 39.889 413.38 38.0778 413.38 35.6628V32.2128H426.317V42.9078H437.357V54.1202H426.317V72.1464C426.317 73.7563 426.605 75.1076 427.18 76.2001C427.755 77.2351 428.646 78.0113 429.853 78.5288C431.061 79.0463 432.556 79.3051 434.338 79.3051C434.741 79.3051 435.201 79.2763 435.718 79.2188C436.236 79.1613 436.782 79.1038 437.357 79.0463V90C436.494 90.115 435.517 90.23 434.425 90.345C433.332 90.46 432.297 90.5175 431.32 90.5175ZM444.938 90V24.7091H457.876V52.2227L456.323 50.1527C457.416 47.3352 459.169 45.2653 461.584 43.9428C464.057 42.5628 466.932 41.8728 470.209 41.8728C473.774 41.8728 476.879 42.6203 479.524 44.1153C482.227 45.6103 484.325 47.709 485.82 50.4115C487.315 53.0565 488.063 56.1614 488.063 59.7264V90H475.126V62.4864C475.126 60.6464 474.752 59.0652 474.004 57.7427C473.314 56.4202 472.308 55.3852 470.986 54.6377C469.721 53.8902 468.226 53.5165 466.501 53.5165C464.833 53.5165 463.338 53.8902 462.016 54.6377C460.693 55.3852 459.658 56.4202 458.911 57.7427C458.221 59.0652 457.876 60.6464 457.876 62.4864V90H444.938ZM519.254 91.035C514.251 91.035 509.91 89.9425 506.23 87.7575C502.55 85.515 499.704 82.525 497.691 78.7876C495.679 75.0501 494.672 70.9101 494.672 66.3676C494.672 61.6527 495.707 57.4552 497.777 53.7752C499.905 50.0952 502.751 47.1915 506.316 45.064C509.881 42.9365 513.906 41.8728 518.391 41.8728C522.129 41.8728 525.435 42.4765 528.31 43.684C531.185 44.834 533.6 46.4727 535.555 48.6002C537.567 50.7277 539.091 53.2002 540.126 56.0177C541.161 58.7777 541.678 61.7964 541.678 65.0739C541.678 65.9939 541.621 66.9139 541.506 67.8339C541.448 68.6964 541.305 69.4439 541.075 70.0764H505.799V60.5889H533.744L527.62 65.0739C528.195 62.6014 528.166 60.4164 527.534 58.5189C526.901 56.5639 525.78 55.0402 524.17 53.9477C522.617 52.7977 520.691 52.2227 518.391 52.2227C516.149 52.2227 514.222 52.769 512.612 53.8615C511.002 54.954 509.795 56.5639 508.99 58.6914C508.185 60.8189 507.869 63.4064 508.041 66.4539C507.811 69.0989 508.127 71.4276 508.99 73.4401C509.852 75.4526 511.175 77.0338 512.957 78.1838C514.74 79.2763 516.896 79.8226 519.426 79.8226C521.726 79.8226 523.681 79.3626 525.291 78.4426C526.959 77.5226 528.252 76.2576 529.172 74.6476L539.522 79.5638C538.602 81.8638 537.136 83.8763 535.124 85.6013C533.169 87.3263 530.84 88.6775 528.137 89.655C525.435 90.575 522.474 91.035 519.254 91.035ZM589.117 91.035C585.092 91.035 581.297 90.3162 577.732 88.8788C574.225 87.3838 571.177 85.285 568.59 82.5825C566.06 79.8801 564.162 76.6888 562.897 73.0088L573.851 68.0926C575.461 71.6001 577.675 74.3601 580.492 76.3726C583.367 78.3851 586.53 79.3913 589.98 79.3913C591.82 79.3913 593.401 79.1038 594.723 78.5288C596.046 77.9538 597.081 77.1776 597.828 76.2001C598.576 75.1651 598.949 73.9576 598.949 72.5776C598.949 71.0826 598.489 69.8176 597.57 68.7826C596.65 67.6901 595.212 66.8276 593.257 66.1951L580.665 62.0552C575.547 60.3877 571.695 58.0302 569.107 54.9827C566.52 51.8777 565.226 48.169 565.226 43.8565C565.226 40.0615 566.146 36.7266 567.986 33.8516C569.883 30.9766 572.5 28.7341 575.835 27.1241C579.227 25.5141 583.108 24.7091 587.478 24.7091C591.331 24.7091 594.896 25.3704 598.173 26.6929C601.451 28.0154 604.268 29.8841 606.626 32.2991C609.041 34.7141 610.852 37.6178 612.059 41.0103L601.192 45.9265C599.984 42.9365 598.173 40.6078 595.758 38.9403C593.343 37.2153 590.583 36.3528 587.478 36.3528C585.696 36.3528 584.115 36.6403 582.735 37.2153C581.355 37.7903 580.291 38.624 579.543 39.7165C578.796 40.7515 578.422 41.959 578.422 43.339C578.422 44.834 578.911 46.1565 579.888 47.3065C580.866 48.399 582.332 49.2615 584.287 49.894L596.621 53.8615C601.796 55.5289 605.648 57.8577 608.178 60.8477C610.766 63.8376 612.059 67.4889 612.059 71.8014C612.059 75.5388 611.082 78.8738 609.127 81.8063C607.172 84.6813 604.469 86.9525 601.019 88.62C597.627 90.23 593.66 91.035 589.117 91.035ZM643.322 90.5175C637.629 90.5175 633.202 88.9938 630.039 85.9463C626.934 82.8413 625.382 78.5288 625.382 73.0088V54.1202H617.447V42.9078H617.878C620.293 42.9078 622.133 42.304 623.398 41.0965C624.72 39.889 625.382 38.0778 625.382 35.6628V32.2128H638.319V42.9078H649.359V54.1202H638.319V72.1464C638.319 73.7563 638.607 75.1076 639.182 76.2001C639.757 77.2351 640.648 78.0113 641.855 78.5288C643.063 79.0463 644.558 79.3051 646.34 79.3051C646.743 79.3051 647.203 79.2763 647.72 79.2188C648.238 79.1613 648.784 79.1038 649.359 79.0463V90C648.496 90.115 647.519 90.23 646.426 90.345C645.334 90.46 644.299 90.5175 643.322 90.5175ZM671.516 91.035C668.124 91.035 665.191 90.4887 662.719 89.3963C660.246 88.3038 658.349 86.7513 657.026 84.7388C655.704 82.6688 655.043 80.2251 655.043 77.4076C655.043 74.7626 655.646 72.4339 656.854 70.4214C658.061 68.3514 659.901 66.6264 662.374 65.2464C664.904 63.8664 668.038 62.8889 671.775 62.3139L686.179 59.9852V69.4726L674.104 71.6289C672.264 71.9739 670.855 72.5776 669.878 73.4401C668.9 74.2451 668.411 75.4238 668.411 76.9763C668.411 78.4138 668.958 79.5351 670.05 80.3401C671.143 81.1451 672.494 81.5475 674.104 81.5475C676.231 81.5475 678.1 81.0876 679.71 80.1676C681.32 79.2476 682.556 78.0113 683.419 76.4588C684.339 74.8488 684.799 73.0951 684.799 71.1976V58.9502C684.799 57.1677 684.08 55.6727 682.642 54.4652C681.262 53.2577 679.365 52.654 676.95 52.654C674.65 52.654 672.609 53.2865 670.826 54.5515C669.101 55.8164 667.836 57.4839 667.031 59.5539L656.681 54.6377C657.601 51.9927 659.068 49.7215 661.08 47.824C663.093 45.9265 665.508 44.4603 668.325 43.4253C671.143 42.3903 674.219 41.8728 677.554 41.8728C681.521 41.8728 685.029 42.5915 688.076 44.029C691.124 45.4665 693.481 47.479 695.149 50.0665C696.874 52.5965 697.736 55.5577 697.736 58.9502V90H685.661V82.41L688.594 81.8925C687.214 83.9625 685.69 85.6875 684.022 87.0675C682.355 88.39 680.486 89.3675 678.416 90C676.346 90.69 674.046 91.035 671.516 91.035ZM707.224 90V42.9078H719.299V54.2065L718.437 52.5677C719.472 48.6002 721.168 45.9265 723.525 44.5465C725.94 43.109 728.787 42.3903 732.064 42.3903H734.824V53.6027H730.77C727.608 53.6027 725.049 54.5802 723.094 56.5352C721.139 58.4327 720.162 61.1352 720.162 64.6426V90H707.224ZM764.863 90.5175C759.17 90.5175 754.743 88.9938 751.58 85.9463C748.475 82.8413 746.923 78.5288 746.923 73.0088V54.1202H738.988V42.9078H739.419C741.834 42.9078 743.674 42.304 744.939 41.0965C746.261 39.889 746.923 38.0778 746.923 35.6628V32.2128H759.86V42.9078H770.9V54.1202H759.86V72.1464C759.86 73.7563 760.148 75.1076 760.723 76.2001C761.298 77.2351 762.189 78.0113 763.396 78.5288C764.604 79.0463 766.099 79.3051 767.881 79.3051C768.284 79.3051 768.744 79.2763 769.261 79.2188C769.779 79.1613 770.325 79.1038 770.9 79.0463V90C770.037 90.115 769.06 90.23 767.968 90.345C766.875 90.46 765.84 90.5175 764.863 90.5175ZM783.225 104.231V97.7625C785.237 97.3025 786.876 96.4112 788.141 95.0887C789.464 93.8237 790.326 92.1275 790.729 90H784.95V77.0626H797.887V84.5663C797.887 90.0287 796.651 94.4275 794.179 97.7625C791.706 101.097 788.055 103.254 783.225 104.231ZM131.043 199V134.744H144.411V162.516H169.424V134.744H182.792V199H169.424V174.16H144.411V199H131.043ZM216.638 200.035C211.981 200.035 207.726 198.971 203.873 196.844C200.079 194.716 197.031 191.813 194.731 188.133C192.489 184.395 191.367 180.169 191.367 175.454C191.367 170.681 192.489 166.455 194.731 162.775C197.031 159.095 200.079 156.191 203.873 154.064C207.726 151.937 211.981 150.873 216.638 150.873C221.296 150.873 225.522 151.937 229.317 154.064C233.112 156.191 236.131 159.095 238.373 162.775C240.673 166.455 241.823 170.681 241.823 175.454C241.823 180.169 240.673 184.395 238.373 188.133C236.131 191.813 233.112 194.716 229.317 196.844C225.522 198.971 221.296 200.035 216.638 200.035ZM216.638 188.391C218.996 188.391 221.037 187.845 222.762 186.753C224.545 185.66 225.925 184.136 226.902 182.181C227.937 180.226 228.455 177.984 228.455 175.454C228.455 172.924 227.937 170.71 226.902 168.813C225.925 166.858 224.545 165.334 222.762 164.241C221.037 163.091 218.996 162.516 216.638 162.516C214.281 162.516 212.211 163.091 210.428 164.241C208.646 165.334 207.237 166.858 206.202 168.813C205.225 170.71 204.736 172.924 204.736 175.454C204.736 177.984 205.225 180.226 206.202 182.181C207.237 184.136 208.646 185.66 210.428 186.753C212.211 187.845 214.281 188.391 216.638 188.391ZM249.445 216.25V151.908H261.52V160.878L260.399 158.29C261.951 155.933 264.05 154.122 266.695 152.857C269.397 151.534 272.474 150.873 275.924 150.873C280.408 150.873 284.462 151.965 288.085 154.15C291.707 156.335 294.582 159.296 296.71 163.034C298.837 166.714 299.901 170.854 299.901 175.454C299.901 179.996 298.837 184.136 296.71 187.874C294.64 191.611 291.793 194.573 288.171 196.758C284.548 198.943 280.437 200.035 275.837 200.035C272.617 200.035 269.627 199.46 266.867 198.31C264.165 197.103 261.98 195.349 260.312 193.049L262.382 190.375V216.25H249.445ZM274.285 188.391C276.7 188.391 278.827 187.845 280.667 186.753C282.507 185.66 283.945 184.136 284.98 182.181C286.015 180.226 286.532 177.984 286.532 175.454C286.532 172.924 286.015 170.71 284.98 168.813C283.945 166.858 282.507 165.334 280.667 164.241C278.827 163.091 276.7 162.516 274.285 162.516C271.985 162.516 269.915 163.063 268.075 164.155C266.292 165.248 264.884 166.771 263.849 168.726C262.871 170.681 262.382 172.924 262.382 175.454C262.382 177.984 262.871 180.226 263.849 182.181C264.884 184.136 266.292 185.66 268.075 186.753C269.915 187.845 271.985 188.391 274.285 188.391ZM330.162 200.035C325.159 200.035 320.818 198.943 317.138 196.758C313.458 194.515 310.612 191.525 308.599 187.788C306.587 184.05 305.581 179.91 305.581 175.368C305.581 170.653 306.616 166.455 308.686 162.775C310.813 159.095 313.659 156.191 317.224 154.064C320.789 151.937 324.814 150.873 329.299 150.873C333.037 150.873 336.343 151.477 339.218 152.684C342.093 153.834 344.508 155.473 346.463 157.6C348.475 159.728 349.999 162.2 351.034 165.018C352.069 167.778 352.587 170.796 352.587 174.074C352.587 174.994 352.529 175.914 352.414 176.834C352.357 177.696 352.213 178.444 351.983 179.076H316.707V169.589H344.652L338.528 174.074C339.103 171.601 339.074 169.416 338.442 167.519C337.809 165.564 336.688 164.04 335.078 162.948C333.525 161.798 331.599 161.223 329.299 161.223C327.057 161.223 325.13 161.769 323.52 162.861C321.91 163.954 320.703 165.564 319.898 167.691C319.093 169.819 318.777 172.406 318.949 175.454C318.719 178.099 319.035 180.428 319.898 182.44C320.76 184.453 322.083 186.034 323.865 187.184C325.648 188.276 327.804 188.823 330.334 188.823C332.634 188.823 334.589 188.363 336.199 187.443C337.867 186.523 339.16 185.258 340.08 183.648L350.43 188.564C349.51 190.864 348.044 192.876 346.032 194.601C344.077 196.326 341.748 197.678 339.045 198.655C336.343 199.575 333.382 200.035 330.162 200.035ZM378.662 200.035C373.487 200.035 368.973 198.828 365.121 196.413C361.326 193.94 358.739 190.634 357.359 186.494L366.846 182.009C368.053 184.539 369.692 186.523 371.762 187.96C373.832 189.398 376.132 190.116 378.662 190.116C380.502 190.116 381.911 189.743 382.888 188.995C383.866 188.248 384.355 187.213 384.355 185.89C384.355 185.2 384.182 184.625 383.837 184.165C383.492 183.648 382.975 183.188 382.285 182.785C381.595 182.383 380.732 182.038 379.697 181.75L371.676 179.508C367.823 178.415 364.862 176.661 362.792 174.246C360.722 171.774 359.687 168.87 359.687 165.535C359.687 162.603 360.435 160.044 361.93 157.859C363.425 155.674 365.524 153.978 368.226 152.77C370.928 151.505 374.033 150.873 377.541 150.873C382.141 150.873 386.166 151.965 389.616 154.15C393.123 156.278 395.596 159.296 397.033 163.206L387.46 167.691C386.77 165.736 385.505 164.184 383.665 163.034C381.882 161.826 379.841 161.223 377.541 161.223C375.873 161.223 374.551 161.568 373.573 162.258C372.653 162.948 372.193 163.896 372.193 165.104C372.193 165.736 372.366 166.311 372.711 166.829C373.056 167.346 373.602 167.806 374.35 168.209C375.155 168.611 376.132 168.985 377.282 169.33L384.786 171.573C388.696 172.723 391.686 174.476 393.756 176.834C395.826 179.134 396.861 181.98 396.861 185.373C396.861 188.305 396.085 190.864 394.532 193.049C393.037 195.234 390.938 196.959 388.236 198.224C385.533 199.431 382.342 200.035 378.662 200.035ZM411.082 217.975C409.702 217.975 408.351 217.86 407.028 217.63C405.763 217.4 404.642 217.026 403.664 216.509V205.9C404.469 206.13 405.418 206.331 406.511 206.504C407.603 206.676 408.609 206.762 409.529 206.762C412.059 206.762 413.871 206.159 414.963 204.951C416.056 203.801 416.947 202.479 417.637 200.984L420.828 193.653L420.656 204.434L399.956 151.908H413.842L427.556 189.254H422.381L436.094 151.908H449.98L429.798 203.399C428.533 206.619 426.981 209.321 425.141 211.506C423.301 213.691 421.202 215.301 418.844 216.336C416.544 217.429 413.957 217.975 411.082 217.975ZM472.082 199V134.744H485.019L509.083 166.656H503.045L526.419 134.744H539.356V199H525.988V149.493L531.335 150.7L506.582 182.613H504.857L480.966 150.7L485.451 149.493V199H472.082ZM564.378 200.035C560.986 200.035 558.053 199.489 555.581 198.396C553.108 197.304 551.211 195.751 549.888 193.739C548.566 191.669 547.905 189.225 547.905 186.408C547.905 183.763 548.508 181.434 549.716 179.421C550.923 177.351 552.763 175.626 555.236 174.246C557.766 172.866 560.9 171.889 564.637 171.314L579.041 168.985V178.473L566.966 180.629C565.126 180.974 563.717 181.578 562.739 182.44C561.762 183.245 561.273 184.424 561.273 185.976C561.273 187.414 561.82 188.535 562.912 189.34C564.004 190.145 565.356 190.548 566.966 190.548C569.093 190.548 570.962 190.088 572.572 189.168C574.182 188.248 575.418 187.011 576.281 185.459C577.201 183.849 577.661 182.095 577.661 180.198V167.95C577.661 166.168 576.942 164.673 575.504 163.465C574.124 162.258 572.227 161.654 569.812 161.654C567.512 161.654 565.471 162.286 563.688 163.551C561.963 164.816 560.698 166.484 559.893 168.554L549.543 163.638C550.463 160.993 551.93 158.721 553.942 156.824C555.955 154.927 558.37 153.46 561.187 152.425C564.004 151.39 567.081 150.873 570.416 150.873C574.383 150.873 577.891 151.592 580.938 153.029C583.986 154.467 586.343 156.479 588.011 159.066C589.736 161.596 590.598 164.558 590.598 167.95V199H578.523V191.41L581.456 190.893C580.076 192.963 578.552 194.688 576.884 196.068C575.217 197.39 573.348 198.368 571.278 199C569.208 199.69 566.908 200.035 564.378 200.035ZM600.086 199V133.709H613.024V175.54L608.194 173.988L628.98 151.908H644.936L627.859 170.883L644.85 199H630.187L615.956 175.109L623.46 173.211L609.056 188.909L613.024 181.405V199H600.086ZM672.464 200.035C667.462 200.035 663.121 198.943 659.441 196.758C655.761 194.515 652.914 191.525 650.902 187.788C648.889 184.05 647.883 179.91 647.883 175.368C647.883 170.653 648.918 166.455 650.988 162.775C653.116 159.095 655.962 156.191 659.527 154.064C663.092 151.937 667.117 150.873 671.602 150.873C675.339 150.873 678.646 151.477 681.521 152.684C684.396 153.834 686.81 155.473 688.765 157.6C690.778 159.728 692.302 162.2 693.337 165.018C694.372 167.778 694.889 170.796 694.889 174.074C694.889 174.994 694.832 175.914 694.717 176.834C694.659 177.696 694.515 178.444 694.285 179.076H659.009V169.589H686.954L680.831 174.074C681.406 171.601 681.377 169.416 680.744 167.519C680.112 165.564 678.991 164.04 677.381 162.948C675.828 161.798 673.902 161.223 671.602 161.223C669.359 161.223 667.433 161.769 665.823 162.861C664.213 163.954 663.006 165.564 662.201 167.691C661.396 169.819 661.079 172.406 661.252 175.454C661.022 178.099 661.338 180.428 662.201 182.44C663.063 184.453 664.386 186.034 666.168 187.184C667.951 188.276 670.107 188.823 672.637 188.823C674.937 188.823 676.892 188.363 678.502 187.443C680.169 186.523 681.463 185.258 682.383 183.648L692.733 188.564C691.813 190.864 690.347 192.876 688.334 194.601C686.379 196.326 684.051 197.678 681.348 198.655C678.646 199.575 675.684 200.035 672.464 200.035ZM720.965 200.035C715.79 200.035 711.276 198.828 707.424 196.413C703.629 193.94 701.041 190.634 699.661 186.494L709.149 182.009C710.356 184.539 711.995 186.523 714.065 187.96C716.135 189.398 718.435 190.116 720.965 190.116C722.805 190.116 724.214 189.743 725.191 188.995C726.169 188.248 726.657 187.213 726.657 185.89C726.657 185.2 726.485 184.625 726.14 184.165C725.795 183.648 725.277 183.188 724.587 182.785C723.897 182.383 723.035 182.038 722 181.75L713.979 179.508C710.126 178.415 707.165 176.661 705.095 174.246C703.025 171.774 701.99 168.87 701.99 165.535C701.99 162.603 702.738 160.044 704.233 157.859C705.727 155.674 707.826 153.978 710.529 152.77C713.231 151.505 716.336 150.873 719.844 150.873C724.444 150.873 728.469 151.965 731.919 154.15C735.426 156.278 737.899 159.296 739.336 163.206L729.762 167.691C729.072 165.736 727.807 164.184 725.967 163.034C724.185 161.826 722.144 161.223 719.844 161.223C718.176 161.223 716.854 161.568 715.876 162.258C714.956 162.948 714.496 163.896 714.496 165.104C714.496 165.736 714.669 166.311 715.014 166.829C715.359 167.346 715.905 167.806 716.652 168.209C717.457 168.611 718.435 168.985 719.585 169.33L727.089 171.573C730.999 172.723 733.989 174.476 736.059 176.834C738.129 179.134 739.164 181.98 739.164 185.373C739.164 188.305 738.387 190.864 736.835 193.049C735.34 195.234 733.241 196.959 730.539 198.224C727.836 199.431 724.645 200.035 720.965 200.035ZM224.598 308V260.908H237.535V308H224.598ZM224.598 256.682V243.744H237.535V256.682H224.598ZM269.686 308.517C263.993 308.517 259.566 306.994 256.403 303.946C253.299 300.841 251.746 296.529 251.746 291.009V272.12H243.811V260.908H244.242C246.657 260.908 248.497 260.304 249.762 259.097C251.085 257.889 251.746 256.078 251.746 253.663V250.213H264.683V260.908H275.723V272.12H264.683V290.146C264.683 291.756 264.971 293.108 265.546 294.2C266.121 295.235 267.012 296.011 268.22 296.529C269.427 297.046 270.922 297.305 272.705 297.305C273.107 297.305 273.567 297.276 274.085 297.219C274.602 297.161 275.148 297.104 275.723 297.046V308C274.861 308.115 273.883 308.23 272.791 308.345C271.698 308.46 270.663 308.517 269.686 308.517ZM299.751 308V243.744H313.12V271.516H338.132V243.744H351.501V308H338.132V283.16H313.12V308H299.751ZM376.55 309.035C373.157 309.035 370.225 308.489 367.752 307.396C365.28 306.304 363.382 304.751 362.06 302.739C360.737 300.669 360.076 298.225 360.076 295.408C360.076 292.763 360.68 290.434 361.887 288.421C363.095 286.351 364.935 284.626 367.407 283.246C369.937 281.866 373.071 280.889 376.808 280.314L391.212 277.985V287.473L379.137 289.629C377.297 289.974 375.889 290.578 374.911 291.44C373.934 292.245 373.445 293.424 373.445 294.976C373.445 296.414 373.991 297.535 375.084 298.34C376.176 299.145 377.527 299.548 379.137 299.548C381.265 299.548 383.133 299.088 384.743 298.168C386.353 297.248 387.59 296.011 388.452 294.459C389.372 292.849 389.832 291.095 389.832 289.198V276.95C389.832 275.168 389.113 273.673 387.676 272.465C386.296 271.258 384.398 270.654 381.983 270.654C379.683 270.654 377.642 271.286 375.86 272.551C374.135 273.816 372.87 275.484 372.065 277.554L361.715 272.638C362.635 269.993 364.101 267.721 366.114 265.824C368.126 263.927 370.541 262.46 373.359 261.425C376.176 260.39 379.252 259.873 382.587 259.873C386.555 259.873 390.062 260.592 393.11 262.029C396.157 263.467 398.515 265.479 400.182 268.066C401.907 270.596 402.77 273.558 402.77 276.95V308H390.695V300.41L393.627 299.893C392.247 301.963 390.723 303.688 389.056 305.068C387.388 306.39 385.52 307.368 383.45 308C381.38 308.69 379.08 309.035 376.55 309.035ZM412.258 325.25V260.908H424.333V269.878L423.211 267.29C424.764 264.933 426.863 263.122 429.508 261.857C432.21 260.534 435.286 259.873 438.736 259.873C443.221 259.873 447.275 260.965 450.897 263.15C454.52 265.335 457.395 268.296 459.522 272.034C461.65 275.714 462.714 279.854 462.714 284.454C462.714 288.996 461.65 293.136 459.522 296.874C457.452 300.611 454.606 303.573 450.984 305.758C447.361 307.943 443.25 309.035 438.65 309.035C435.43 309.035 432.44 308.46 429.68 307.31C426.978 306.103 424.793 304.349 423.125 302.049L425.195 299.375V325.25H412.258ZM437.098 297.391C439.513 297.391 441.64 296.845 443.48 295.753C445.32 294.66 446.758 293.136 447.792 291.181C448.827 289.226 449.345 286.984 449.345 284.454C449.345 281.924 448.827 279.71 447.792 277.813C446.758 275.858 445.32 274.334 443.48 273.241C441.64 272.091 439.513 271.516 437.098 271.516C434.798 271.516 432.728 272.063 430.888 273.155C429.105 274.248 427.696 275.771 426.661 277.726C425.684 279.681 425.195 281.924 425.195 284.454C425.195 286.984 425.684 289.226 426.661 291.181C427.696 293.136 429.105 294.66 430.888 295.753C432.728 296.845 434.798 297.391 437.098 297.391ZM470.291 325.25V260.908H482.366V269.878L481.244 267.29C482.797 264.933 484.896 263.122 487.541 261.857C490.243 260.534 493.319 259.873 496.769 259.873C501.254 259.873 505.308 260.965 508.931 263.15C512.553 265.335 515.428 268.296 517.556 272.034C519.683 275.714 520.747 279.854 520.747 284.454C520.747 288.996 519.683 293.136 517.556 296.874C515.486 300.611 512.639 303.573 509.017 305.758C505.394 307.943 501.283 309.035 496.683 309.035C493.463 309.035 490.473 308.46 487.713 307.31C485.011 306.103 482.826 304.349 481.158 302.049L483.228 299.375V325.25H470.291ZM495.131 297.391C497.546 297.391 499.673 296.845 501.513 295.753C503.353 294.66 504.791 293.136 505.826 291.181C506.861 289.226 507.378 286.984 507.378 284.454C507.378 281.924 506.861 279.71 505.826 277.813C504.791 275.858 503.353 274.334 501.513 273.241C499.673 272.091 497.546 271.516 495.131 271.516C492.831 271.516 490.761 272.063 488.921 273.155C487.138 274.248 485.729 275.771 484.694 277.726C483.717 279.681 483.228 281.924 483.228 284.454C483.228 286.984 483.717 289.226 484.694 291.181C485.729 293.136 487.138 294.66 488.921 295.753C490.761 296.845 492.831 297.391 495.131 297.391ZM551.008 309.035C546.005 309.035 541.664 307.943 537.984 305.758C534.304 303.515 531.458 300.525 529.445 296.788C527.433 293.05 526.426 288.91 526.426 284.368C526.426 279.653 527.461 275.455 529.531 271.775C531.659 268.095 534.505 265.191 538.07 263.064C541.635 260.937 545.66 259.873 550.145 259.873C553.883 259.873 557.189 260.477 560.064 261.684C562.939 262.834 565.354 264.473 567.309 266.6C569.321 268.728 570.845 271.2 571.88 274.018C572.915 276.778 573.432 279.796 573.432 283.074C573.432 283.994 573.375 284.914 573.26 285.834C573.202 286.696 573.059 287.444 572.829 288.076H537.553V278.589H565.497L559.374 283.074C559.949 280.601 559.92 278.416 559.287 276.519C558.655 274.564 557.534 273.04 555.924 271.948C554.371 270.798 552.445 270.223 550.145 270.223C547.903 270.223 545.976 270.769 544.366 271.861C542.756 272.954 541.549 274.564 540.744 276.691C539.939 278.819 539.623 281.406 539.795 284.454C539.565 287.099 539.881 289.428 540.744 291.44C541.606 293.453 542.929 295.034 544.711 296.184C546.494 297.276 548.65 297.823 551.18 297.823C553.48 297.823 555.435 297.363 557.045 296.443C558.712 295.523 560.006 294.258 560.926 292.648L571.276 297.564C570.356 299.864 568.89 301.876 566.877 303.601C564.922 305.326 562.594 306.678 559.891 307.655C557.189 308.575 554.228 309.035 551.008 309.035ZM581.051 308V260.908H593.126V270.223L592.436 268.153C593.528 265.335 595.282 263.265 597.697 261.943C600.169 260.563 603.044 259.873 606.322 259.873C609.887 259.873 612.992 260.62 615.637 262.115C618.339 263.61 620.438 265.709 621.933 268.411C623.428 271.056 624.175 274.161 624.175 277.726V308H611.238V280.486C611.238 278.646 610.864 277.065 610.117 275.743C609.427 274.42 608.421 273.385 607.098 272.638C605.833 271.89 604.338 271.516 602.613 271.516C600.946 271.516 599.451 271.89 598.128 272.638C596.806 273.385 595.771 274.42 595.023 275.743C594.333 277.065 593.988 278.646 593.988 280.486V308H581.051ZM639.065 308V295.063H652.002V308H639.065Z" fill="url(#paint0_linear_94_480)"/>
<path d="M467.491 214.252C447.459 213.178 427.431 212.019 407.407 211.059C395.163 210.477 382.906 210.121 370.662 209.804C359.409 209.511 348.152 209.274 336.899 209.226C318.65 209.151 300.377 208.99 282.179 209.312C233.44 210.162 184.746 211.249 136.029 212.221C132.496 212.295 128.772 212.698 125.482 212.06C123.015 211.58 120.058 209.897 119.192 208.364C117.848 205.978 120.67 205 124.287 204.978C144.852 204.819 165.421 204.595 185.999 204.457C224.371 204.19 262.732 203.848 301.123 203.78C318.094 203.749 335.133 204.088 352.129 204.708C357.876 204.922 363.622 205.155 369.385 205.351C374.333 205.522 379.406 206.876 384.175 206.576C391.285 206.13 398.033 208.335 404.761 207.943C413.798 207.421 422.34 209.356 431.136 209.819C440.382 210.295 449.642 210.811 458.877 211.494C461.883 211.721 464.829 212.519 467.803 213.064C467.709 213.454 467.615 213.854 467.52 214.253L467.491 214.252Z" fill="#F700B1"/>
<defs>
<linearGradient id="paint0_linear_94_480" x1="441.939" y1="-46.1154" x2="441.752" y2="451.5" gradientUnits="userSpaceOnUse">
<stop stop-color="white"/>
<stop offset="0.212912" stop-color="#B7B7B7"/>
<stop offset="0.4044" stop-color="white"/>
<stop offset="0.525" stop-color="#E8E8E8"/>
<stop offset="1" stop-color="#606060"/>
</linearGradient>
</defs>
</svg>
